HIERARCHY
ROOT Hips
{
	OFFSET 0.000000 0.000000 0.000000
	CHANNELS 6 Xposition Yposition Zposition Zrotation Yrotation Xrotation 
	JOINT LeftUpLeg_virtual
	{
		OFFSET 0.000000 0.000000 0.000000
		CHANNELS 3 Zrotation Yrotation Xrotation
		JOINT LeftUpLeg
		{
			OFFSET 10.205400 -3.823500 0.155100
			CHANNELS 3 Zrotation Yrotation Xrotation
			JOINT LeftLeg
			{
				OFFSET 0.708757 -12.982077 0.567790
				CHANNELS 3 Zrotation Yrotation Xrotation
				JOINT LeftFoot
				{
					OFFSET -0.708756 -10.717838 -2.184338
					CHANNELS 3 Zrotation Yrotation Xrotation
					JOINT LeftToeBase
					{
						OFFSET 0.108149 -7.191104 7.560241
						CHANNELS 3 Zrotation Yrotation Xrotation
						End Site
						{
							OFFSET 0.000000 0.000000 0.000000
						}
					}
				}
			}
		}
	}
	JOINT RightUpLeg_virtual
	{
		OFFSET 0.000000 0.000000 0.000000
		CHANNELS 3 Zrotation Yrotation Xrotation
		JOINT RightUpLeg
		{
			OFFSET -10.205400 -3.823500 0.005500
			CHANNELS 3 Zrotation Yrotation Xrotation
			JOINT RightLeg
			{
				OFFSET -0.708756 -12.982134 0.610632
				CHANNELS 3 Zrotation Yrotation Xrotation
				JOINT RightFoot
				{
					OFFSET 0.708754 -10.717769 -1.945823
					CHANNELS 3 Zrotation Yrotation Xrotation
					JOINT RightToeBase
					{
						OFFSET -0.108140 -7.191069 7.372968
						CHANNELS 3 Zrotation Yrotation Xrotation
						End Site
						{
							OFFSET 0.000000 0.000000 0.000000
						}
					}
				}
			}
		}
	}
	JOINT Spine_virtual
	{
		OFFSET 0.000000 0.000000 0.000000
		CHANNELS 3 Zrotation Yrotation Xrotation
		JOINT Spine
		{
			OFFSET 0.000000 6.876099 0.125700
			CHANNELS 3 Zrotation Yrotation Xrotation
			JOINT Spine1
			{
				OFFSET 0.000000 8.022060 0.146608
				CHANNELS 3 Zrotation Yrotation Xrotation
				JOINT Spine2
				{
					OFFSET 0.000000 9.168068 0.167552
					CHANNELS 3 Zrotation Yrotation Xrotation
					JOINT Neck_virtual
					{
						OFFSET 0.000000 0.000000 0.000000
						CHANNELS 3 Zrotation Yrotation Xrotation
						JOINT Neck
						{
							OFFSET 0.000000 10.314075 0.188496
							CHANNELS 3 Zrotation Yrotation Xrotation
							JOINT Head
							{
								OFFSET 0.000000 7.643700 -2.377400
								CHANNELS 3 Zrotation Yrotation Xrotation
								End Site
								{
									OFFSET 0.000000 0.000000 0.000000
								}
							}
						}
					}
					JOINT LeftShoulder_virtual
					{
						OFFSET 0.000000 0.000000 0.000000
						CHANNELS 3 Zrotation Yrotation Xrotation
						JOINT LeftShoulder
						{
							OFFSET 4.392200 8.824978 0.174984
							CHANNELS 3 Zrotation Yrotation Xrotation
							JOINT LeftArm
							{
								OFFSET 8.771219 -2.981674 -0.026999
								CHANNELS 3 Zrotation Yrotation Xrotation
								JOINT LeftForeArm
								{
									OFFSET 8.512804 0.000000 -0.000000
									CHANNELS 3 Zrotation Yrotation Xrotation
									JOINT LeftHand
									{
										OFFSET 18.484802 0.000000 -0.000000
										CHANNELS 3 Zrotation Yrotation Xrotation
										End Site
										{
											OFFSET 0.000000 0.000000 0.000000
										}
									}
								}
							}
						}
					}
					JOINT RightShoulder_virtual
					{
						OFFSET 0.000000 0.000000 0.000000
						CHANNELS 3 Zrotation Yrotation Xrotation
						JOINT RightShoulder
						{
							OFFSET -4.392200 8.824993 0.141379
							CHANNELS 3 Zrotation Yrotation Xrotation
							JOINT RightArm
							{
								OFFSET -8.771282 -2.981682 -0.094208
								CHANNELS 3 Zrotation Yrotation Xrotation
								JOINT RightForeArm
								{
									OFFSET -8.494598 0.000000 0.000000
									CHANNELS 3 Zrotation Yrotation Xrotation
									JOINT RightHand
									{
										OFFSET -18.483803 0.000000 0.000001
										CHANNELS 3 Zrotation Yrotation Xrotation
										End Site
										{
											OFFSET 0.000000 0.000000 0.000000
										}
									}
								}
							}
						}
					}
				}
			}
		}
	}
}
MOTION
Frames: 5
Frame Time: 0.033333
-0.330360 36.492447 -0.762865 179.817817 -0.700758 179.354497 -2.254216 -0.851287 12.582459 -1.464852 -8.242359 -12.999025 3.885812 2.514369 12.939246 3.151177 -1.188983 5.210655 0.000000 0.000000 0.000000 1.846082 -0.577776 12.446654 -1.825349 2.514953 -11.194341 -8.302926 1.612453 12.104837 7.797465 1.351392 7.468321 0.000000 0.000000 0.000000 -0.347338 1.490211 2.250249 -3.286715 -0.269372 -10.163829 -0.506895 -3.092216 4.101840 -0.004757 -0.037304 -0.010249 -0.917436 -1.031562 5.173911 -0.364588 1.862511 1.308170 0.000000 0.000000 0.000000 0.730958 -0.275168 2.741892 6.493299 2.088641 -5.246326 -7.756789 23.483865 -29.942928 0.917999 -43.460425 -4.429498 0.000000 0.000000 0.000000 -3.057403 0.434702 1.955706 4.852371 -7.740762 -5.454401 23.387987 -29.615977 -39.703463 -2.576063 36.570841 -5.352999 0.000000 0.000000 0.000000 
-0.342183 36.495678 -0.751051 179.729448 -0.498683 179.134128 -2.110705 -0.979193 12.314325 -1.751030 -8.590634 -13.392224 3.651484 2.450392 12.712258 3.062183 -1.341055 4.921465 0.000000 0.000000 0.000000 1.941108 -0.422892 12.309218 -2.074260 2.400110 -11.388631 -8.686071 0.982506 12.028233 7.245430 0.921183 7.364686 0.000000 0.000000 0.000000 -0.371284 1.482913 2.400069 -3.300246 -0.239437 -10.025243 -0.526098 -3.037995 4.153037 -0.010176 0.019457 -0.120510 -0.883986 -0.857017 5.188732 -0.311314 1.921582 1.283719 0.000000 0.000000 0.000000 0.697375 -0.278231 2.600950 6.506316 2.055713 -5.225068 -7.825155 23.559720 -30.049277 1.038276 -43.415196 -4.576289 0.000000 0.000000 0.000000 -3.039742 0.442497 1.809514 4.880367 -7.728793 -5.508389 23.323802 -29.555325 -39.614984 -2.549061 36.633248 -5.338290 0.000000 0.000000 0.000000 
-0.343902 36.489258 -0.737801 179.771603 -0.525172 179.124826 -2.051501 -1.015176 12.331088 -1.879510 -8.690237 -13.472633 3.775018 2.398000 12.847664 3.250540 -1.305290 4.904615 0.000000 0.000000 0.000000 1.971546 -0.456801 12.328685 -2.087012 2.351406 -11.451355 -8.602692 1.041589 12.050962 7.302938 0.986865 7.349558 0.000000 0.000000 0.000000 -0.357001 1.542291 2.431729 -3.280055 -0.214060 -10.005918 -0.500597 -3.072760 4.142357 0.033066 -0.002878 -0.147515 -0.926017 -0.840087 5.195719 -0.369071 1.867417 1.267640 0.000000 0.000000 0.000000 0.659255 -0.255035 2.620712 6.532627 2.050964 -5.184837 -7.880455 23.558992 -30.018391 1.095312 -43.617988 -4.632319 0.000000 0.000000 0.000000 -3.048681 0.445207 1.872100 4.927514 -7.762901 -5.551613 23.253002 -29.662630 -39.536130 -2.457023 36.532315 -5.243278 0.000000 0.000000 0.000000 
-0.340006 36.486641 -0.730488 179.661296 -0.549381 179.115837 -2.200536 -1.005780 12.325852 -1.941336 -8.796522 -13.559195 3.938016 2.329450 12.997280 3.309080 -1.284342 4.847454 0.000000 0.000000 0.000000 1.813782 -0.456174 12.336829 -2.121537 2.228521 -11.497772 -8.467181 1.052708 12.113579 7.369804 1.077283 7.393615 0.000000 0.000000 0.000000 -0.462936 1.511167 2.426127 -3.320277 -0.169523 -9.965028 -0.473519 -3.042609 4.161262 0.103114 0.022249 -0.108765 -0.933380 -0.874378 5.160731 -0.359641 1.881621 1.295166 0.000000 0.000000 0.000000 0.658371 -0.263364 2.791474 6.589349 2.012726 -5.120181 -8.016577 23.693096 -29.975801 0.919067 -43.486752 -4.534072 0.000000 0.000000 0.000000 -3.072540 0.445697 1.906683 4.917959 -7.745163 -5.537091 23.096421 -29.714550 -39.365454 -2.496924 36.490047 -5.301044 0.000000 0.000000 0.000000 
-0.331226 36.483250 -0.728552 179.779513 -0.582390 179.123500 -2.123397 -1.025309 12.309256 -1.977367 -8.881305 -13.620446 4.114487 2.160302 13.165686 3.274159 -1.282634 4.804644 0.000000 0.000000 0.000000 1.869176 -0.485665 12.315777 -2.102036 2.031027 -11.540239 -8.328057 0.950535 12.158736 7.375384 1.148049 7.474358 0.000000 0.000000 0.000000 -0.402829 1.551724 2.394930 -3.281678 -0.015626 -9.900809 -0.485012 -3.200732 4.136728 -0.005624 0.127286 -0.113782 -0.856806 -0.961970 5.187628 -0.434071 1.809743 1.273167 0.000000 0.000000 0.000000 0.738416 -0.321116 2.764040 6.632084 1.951552 -5.234832 -8.181168 23.753245 -30.154390 1.089868 -43.601776 -4.783259 0.000000 0.000000 0.000000 -3.000685 0.418524 1.893158 4.927712 -7.803906 -5.378981 23.106183 -29.640245 -39.408313 -2.632879 36.519000 -5.420527 0.000000 0.000000 0.000000 
